<?xml version="1.0" encoding="UTF-8"?>
<!DOCTYPE svg PUBLIC "-//W3C//DTD SVG 1.1//EN" "http://www.w3.org/Graphics/SVG/1.1/DTD/svg11.dtd">
<svg xmlns="http://www.w3.org/2000/svg" version="1.1" width="365px" height="361px" style="shape-rendering:geometricPrecision; text-rendering:geometricPrecision; image-rendering:optimizeQuality; fill-rule:evenodd; clip-rule:evenodd" xmlns:xlink="http://www.w3.org/1999/xlink">
<g><path style="opacity:0.991" fill="#029fe3" d="M 154.5,36.5 C 213.43,31.8351 259.263,53.8351 292,102.5C 312.728,138.448 317.394,176.448 306,216.5C 291.143,259.357 262.643,289.19 220.5,306C 161.393,324.016 110.56,310.85 68,266.5C 30.7871,219.665 24.1205,168.665 48,113.5C 70.8768,70.317 106.377,44.6503 154.5,36.5 Z"/></g>
<g><path style="opacity:1" fill="#fafcfe" d="M 178.5,127.5 C 181.898,127.18 185.232,127.513 188.5,128.5C 179.217,159.68 170.55,191.013 162.5,222.5C 159.167,222.5 155.833,222.5 152.5,222.5C 160.88,190.744 169.547,159.078 178.5,127.5 Z"/></g>
<g><path style="opacity:1" fill="#fafcfe" d="M 143.5,144.5 C 144.833,144.5 146.167,144.5 147.5,144.5C 147.793,148.437 147.46,152.27 146.5,156C 131.043,162.229 115.709,168.729 100.5,175.5C 115.953,182.427 131.619,188.76 147.5,194.5C 147.5,198.5 147.5,202.5 147.5,206.5C 126.734,198.52 106.234,189.854 86,180.5C 85.2114,176.909 85.3781,173.409 86.5,170C 105.59,161.45 124.59,152.95 143.5,144.5 Z"/></g>
<g><path style="opacity:1" fill="#fafcfe" d="M 198.5,144.5 C 219.097,153.365 239.764,162.031 260.5,170.5C 260.823,174.226 260.489,177.893 259.5,181.5C 239.5,190.167 219.5,198.833 199.5,207.5C 198.167,203.5 198.167,199.5 199.5,195.5C 214.792,188.903 230.126,182.403 245.5,176C 230.126,169.597 214.792,163.097 199.5,156.5C 198.509,152.555 198.176,148.555 198.5,144.5 Z"/></g>
</svg>
